<svg width="900" height="550" xmlns="http://www.w3.org/2000/svg"><path d="M771.806 550H0V421.806c0 44.576 4.641 60.74 13.357 77.036a96.574 96.574 0 0 0 1.837 3.282c.135.184.27.37.408.556 40.883 55.82 129.83.261 157.687-2.091 64.969-5.487 83.86 20.37 150.275 20.37 66.414 0 223.46-54.635 310.42-54.635 86.962 0 134.781 37.428 170.081 45.614 35.3 8.186 90.336-10.645 95.257-65.58v1.21c.45-7.4.678-15.883.678-25.762V550H771.806zM128.194 0c-44.576 0-60.74 4.641-77.036 13.357-16.297 8.715-29.086 21.504-37.801 37.8C4.64 67.455 0 83.619 0 128.195V0h128.194zm643.612 0H900v128.194c0-44.576-4.641-60.74-13.357-77.036-8.715-16.297-21.504-29.086-37.8-37.801C832.545 4.64 816.381 0 771.805 0z" fill="#FFF" fill-rule="evenodd"/></svg>